<svg xmlns="http://www.w3.org/2000/svg" width="335" height="335" viewBox="0 0 335 335">
<g>
<path d="M 188.50 281.50 C188.14,283.15 188.04,284.27 188.29,284.00 C188.38,283.89 188.52,283.68 188.68,283.38 C185.25,291.34 183.02,296.23 181.41,299.17 C180.31,299.15 174.16,302.84 174.00,303.66 C171.11,303.87 167.12,304.00 163.06,304.00 C158.62,304.00 155.59,303.94 153.48,303.78 C153.87,303.49 153.14,302.76 151.01,300.93 C148.83,299.08 147.29,298.63 147.05,299.30 C145.21,295.81 143.13,291.00 143.66,291.00 C143.97,291.00 143.52,289.91 142.64,288.58 C140.42,285.18 127.93,257.01 127.38,254.14 C126.94,251.86 122.27,241.18 117.76,232.11 C116.56,229.70 115.49,227.12 115.38,226.38 C115.27,225.64 112.27,219.07 108.71,211.77 C108.13,210.58 107.49,209.24 106.80,207.80 C107.37,208.83 107.72,209.33 107.78,209.15 C108.46,207.13 103.30,194.00 101.84,194.00 C101.38,194.00 101.00,193.26 101.00,192.36 C101.00,191.46 100.14,188.87 99.09,186.61 C98.05,184.35 96.13,179.92 94.84,176.77 C93.55,173.61 91.94,171.03 91.26,171.02 C90.44,171.01 90.89,172.92 92.61,176.75 C93.69,179.15 96.21,184.81 98.83,190.73 C97.61,188.05 96.45,185.49 95.46,183.25 L 88.68 168.00 L 41.78 168.00 L 42.44 170.62 C43.10,173.26 43.52,175.19 43.71,176.52 C43.10,175.87 41.71,176.38 41.23,177.81 C41.16,178.02 41.17,178.22 41.24,178.39 C38.32,177.41 32.65,175.34 26.40,172.97 C19.93,170.52 13.99,168.27 11.02,167.16 C12.30,167.51 12.59,167.08 12.82,165.37 C13.12,163.08 15.31,162.33 19.85,162.95 C20.69,163.06 20.91,162.66 20.44,161.90 C19.92,161.06 20.16,160.85 21.18,161.24 C22.01,161.56 24.67,160.93 27.09,159.85 C29.69,158.69 33.83,157.85 37.22,157.80 C41.41,157.74 42.54,157.72 43.10,156.38 C42.76,158.10 42.59,159.26 43.06,160.03 C44.15,161.86 48.76,161.58 62.93,161.77 C74.65,161.93 83.76,161.64 84.29,161.11 C85.00,160.40 84.60,158.84 70.23,126.20 C77.13,141.80 83.34,155.74 83.64,156.23 C83.90,156.65 84.54,157.00 85.06,157.00 C86.54,157.00 86.16,154.30 84.43,152.57 C83.56,151.71 83.09,151.00 83.38,151.00 C84.56,151.00 80.84,142.58 78.15,139.16 C76.57,137.15 74.79,133.93 74.18,132.00 C73.58,130.07 72.38,126.25 71.52,123.50 C70.65,120.75 69.76,117.74 69.54,116.82 C69.17,115.27 64.74,106.83 63.08,104.50 C62.68,103.95 61.75,101.47 61.00,99.00 C60.25,96.53 58.83,92.93 57.84,91.00 C55.87,87.17 50.46,80.58 51.28,83.00 C51.50,83.66 55.66,93.17 60.93,105.14 C57.70,97.85 54.05,89.59 49.91,80.24 C49.55,79.43 49.19,78.62 48.84,77.82 C48.92,78.01 49.01,78.19 49.09,78.36 C49.82,79.94 50.60,80.69 50.82,80.03 C51.04,79.37 50.72,78.32 50.11,77.71 C49.50,77.10 49.00,75.84 49.00,74.91 C49.00,73.98 48.09,72.16 46.97,70.86 L 44.94 68.50 L 46.34 72.00 C46.73,72.97 47.24,74.17 47.73,75.32 C42.96,64.50 38.72,54.77 35.81,47.99 C35.95,47.83 35.98,45.98 35.88,43.75 C35.77,41.41 36.02,38.71 36.45,37.75 C36.63,37.33 36.73,37.00 36.72,36.75 C40.41,36.57 46.76,36.52 57.58,36.50 C56.21,36.64 55.30,36.81 55.00,37.00 C53.57,37.92 73.09,38.60 85.14,38.05 C87.69,37.93 90.08,38.32 90.45,38.92 C90.82,39.51 92.18,40.00 93.49,40.00 C95.82,40.00 99.00,44.42 99.00,47.65 C99.00,48.39 99.40,49.00 99.88,49.00 C100.36,49.00 101.32,50.35 102.00,52.00 C102.68,53.65 103.58,55.00 103.99,55.00 C104.40,55.00 104.58,56.32 104.40,57.93 C104.21,59.54 104.63,62.52 105.33,64.55 C106.23,67.13 106.38,70.21 105.83,74.75 C105.40,78.34 105.29,81.66 105.59,82.15 C106.23,83.18 113.90,87.28 115.83,87.62 C117.76,87.95 119.34,90.45 121.35,96.33 C124.19,104.64 127.32,112.46 128.03,113.00 C128.39,113.28 130.44,117.78 132.59,123.00 C134.73,128.23 138.70,136.77 141.40,142.00 C144.11,147.23 147.20,153.19 148.27,155.25 C150.88,160.29 152.38,159.03 150.07,153.72 C147.93,148.77 137.09,123.94 126.35,99.37 C131.74,111.66 137.62,125.11 143.69,139.00 L 153.51 161.50 L 219.89 161.76 L 282.57 162.00 L 220.14 162.00 C170.27,162.00 154.00,162.29 154.00,163.17 C154.00,163.82 154.74,165.17 155.65,166.17 C157.23,167.91 160.60,168.00 222.17,168.00 C186.90,168.00 157.94,168.34 157.72,168.75 C157.49,169.16 166.22,189.75 177.11,214.50 C182.44,226.61 187.30,237.89 190.88,246.40 C190.37,245.53 189.98,245.00 189.77,245.00 C188.40,245.00 190.15,250.37 192.28,252.72 C194.04,254.66 194.22,255.84 193.71,261.88 C193.39,265.70 192.24,271.00 191.15,273.66 C190.06,276.32 188.87,279.85 188.50,281.50 ZM 43.95 166.44 C45.10,167.83 48.02,168.00 65.88,167.77 C84.11,167.53 86.51,167.31 86.79,165.85 C87.42,162.59 81.19,161.74 62.54,162.51 C44.09,163.28 41.74,163.78 43.95,166.44 ZM 177.33 218.69 C178.50,220.44 179.59,221.74 179.76,221.58 C179.92,221.41 176.27,212.62 171.65,202.04 C167.02,191.47 163.00,183.20 162.71,183.66 C162.13,184.59 165.80,193.84 167.64,196.10 C168.80,197.53 173.27,208.51 174.51,213.00 C174.89,214.38 176.16,216.94 177.33,218.69 ZM 39.82 151.56 C37.52,152.62 30.79,155.36 24.00,158.00 C22.30,158.67 20.63,159.33 19.06,159.97 C20.99,159.17 23.22,158.26 25.77,157.24 C31.40,154.97 36.64,152.85 39.82,151.56 ZM 94.14 36.50 L 98.50 36.50 L 100.18 40.00 C100.48,40.62 101.43,42.75 102.93,46.12 C100.59,40.95 99.01,37.59 98.74,37.25 C98.51,36.95 96.78,36.70 94.14,36.50 ZM 43.92 151.47 C43.88,150.58 43.53,150.23 42.78,150.34 C42.83,150.32 42.87,150.30 42.90,150.29 C43.71,149.93 44.02,150.16 43.92,151.47 ZM 287.51 178.43 C290.64,177.44 295.90,175.59 301.75,173.39 C294.67,176.05 290.16,177.67 287.51,178.43 ZM 42.91 178.92 C43.29,178.79 43.61,178.52 43.81,178.17 C43.76,178.74 43.58,179.00 43.27,179.00 C43.22,179.00 43.09,178.97 42.91,178.92 ZM 177.68 303.25 C178.17,303.05 178.65,302.80 179.10,302.52 C178.79,302.81 178.50,303.00 178.22,303.11 C178.09,303.16 177.91,303.20 177.68,303.25 ZM 8.34 165.47 C8.18,165.85 8.42,166.12 9.11,166.45 C9.10,166.44 9.09,166.44 9.08,166.44 C8.40,166.19 8.11,165.89 8.34,165.47 ZM 284.87 177.59 C284.57,177.98 284.39,178.43 284.38,178.76 C284.24,178.55 284.44,178.15 284.87,177.59 ZM 148.98 302.47 C149.23,302.69 149.51,302.90 149.81,303.08 C149.44,302.91 149.18,302.71 148.98,302.47 ZM 31.77 38.04 C31.82,38.24 31.88,38.46 31.94,38.70 C31.85,38.46 31.80,38.31 31.79,38.24 C31.78,38.17 31.77,38.10 31.77,38.04 Z" fill="rgba(40,61,75,1)"/>
<path d="M 148.27 155.25 C147.20,153.19 144.11,147.23 141.40,142.00 C138.70,136.77 134.73,128.23 132.59,123.00 C130.44,117.78 128.39,113.28 128.03,113.00 C127.32,112.46 124.19,104.64 121.35,96.33 C119.34,90.45 117.76,87.95 115.83,87.62 C113.90,87.28 106.23,83.18 105.59,82.15 C105.29,81.66 105.40,78.34 105.83,74.75 C106.38,70.21 106.23,67.13 105.33,64.55 C104.63,62.52 104.21,59.54 104.40,57.93 C104.58,56.32 104.40,55.00 103.99,55.00 C103.58,55.00 102.68,53.65 102.00,52.00 C101.32,50.35 100.36,49.00 99.88,49.00 C99.40,49.00 99.00,48.39 99.00,47.65 C99.00,44.42 95.82,40.00 93.49,40.00 C92.18,40.00 90.82,39.51 90.45,38.92 C90.08,38.32 87.69,37.93 85.14,38.05 C73.09,38.60 53.57,37.92 55.00,37.00 C57.35,35.48 97.52,35.71 98.74,37.25 C99.29,37.94 105.25,51.10 111.98,66.50 C124.73,95.65 146.90,146.41 150.07,153.72 C152.38,159.03 150.88,160.29 148.27,155.25 ZM 43.95 166.44 C41.74,163.78 44.09,163.28 62.54,162.51 C81.19,161.74 87.42,162.59 86.79,165.85 C86.51,167.31 84.11,167.53 65.88,167.77 C48.02,168.00 45.10,167.83 43.95,166.44 ZM 83.64 156.23 C82.96,155.13 51.89,84.82 51.28,83.00 C50.46,80.58 55.87,87.17 57.84,91.00 C58.83,92.93 60.25,96.53 61.00,99.00 C61.75,101.47 62.68,103.95 63.08,104.50 C64.74,106.83 69.17,115.27 69.54,116.82 C69.76,117.74 70.65,120.75 71.52,123.50 C72.38,126.25 73.58,130.07 74.18,132.00 C74.79,133.93 76.57,137.15 78.15,139.16 C80.84,142.58 84.56,151.00 83.38,151.00 C83.09,151.00 83.56,151.71 84.43,152.57 C86.16,154.30 86.54,157.00 85.06,157.00 C84.54,157.00 83.90,156.65 83.64,156.23 ZM 10.07 166.84 C7.99,166.06 7.84,165.74 9.07,164.59 C9.86,163.85 16.58,160.89 24.00,158.00 C31.42,155.12 38.78,152.10 40.34,151.30 C43.87,149.50 44.41,150.00 43.60,154.31 C42.97,157.70 42.94,157.72 37.22,157.80 C33.83,157.85 29.69,158.69 27.09,159.85 C24.67,160.93 22.01,161.56 21.18,161.24 C20.16,160.85 19.92,161.06 20.44,161.90 C20.91,162.66 20.69,163.06 19.85,162.95 C15.31,162.33 13.12,163.08 12.82,165.37 C12.54,167.44 12.18,167.63 10.07,166.84 ZM 188.50 281.50 C188.87,279.85 190.06,276.32 191.15,273.66 C192.24,271.00 193.39,265.70 193.71,261.88 C194.22,255.84 194.04,254.66 192.28,252.72 C190.15,250.37 188.40,245.00 189.77,245.00 C190.86,245.00 197.00,259.41 197.00,261.97 C197.00,263.74 189.53,282.62 188.29,284.00 C188.04,284.27 188.14,283.15 188.50,281.50 ZM 101.32 196.33 C97.95,188.72 94.03,179.91 92.61,176.75 C90.89,172.92 90.44,171.01 91.26,171.02 C91.94,171.03 93.55,173.61 94.84,176.77 C96.13,179.92 98.05,184.35 99.09,186.61 C100.14,188.87 101.00,191.46 101.00,192.36 C101.00,193.26 101.38,194.00 101.84,194.00 C103.30,194.00 108.46,207.13 107.78,209.15 C107.60,209.70 104.69,203.94 101.32,196.33 ZM 177.33 218.69 C176.16,216.94 174.89,214.38 174.51,213.00 C173.27,208.51 168.80,197.53 167.64,196.10 C165.80,193.84 162.13,184.59 162.71,183.66 C163.00,183.20 167.02,191.47 171.65,202.04 C176.27,212.62 179.92,221.41 179.76,221.58 C179.59,221.74 178.50,220.44 177.33,218.69 ZM 33.36 42.75 C32.18,39.86 31.42,37.16 31.66,36.75 C31.91,36.34 33.26,36.00 34.67,36.00 C36.72,36.00 37.06,36.34 36.45,37.75 C36.02,38.71 35.77,41.41 35.88,43.75 C35.99,46.09 35.95,48.00 35.79,48.00 C35.63,48.00 34.54,45.64 33.36,42.75 ZM 148.55 302.06 C145.49,298.68 147.37,297.82 151.01,300.93 C154.05,303.54 154.23,303.92 152.40,303.96 C151.25,303.98 149.52,303.13 148.55,302.06 ZM 174.00 303.69 C174.00,302.89 181.04,298.71 181.54,299.21 C182.46,300.13 179.38,302.92 176.75,303.55 C175.24,303.92 174.00,303.98 174.00,303.69 ZM 49.09 78.36 C48.35,76.79 47.12,73.93 46.34,72.00 L 44.94 68.50 L 46.97 70.86 C48.09,72.16 49.00,73.98 49.00,74.91 C49.00,75.84 49.50,77.10 50.11,77.71 C50.72,78.32 51.04,79.37 50.82,80.03 C50.60,80.69 49.82,79.94 49.09,78.36 ZM 41.23 177.81 C41.85,175.96 44.00,175.65 44.00,177.42 C44.00,178.29 43.29,179.00 42.42,179.00 C41.55,179.00 41.01,178.47 41.23,177.81 Z" fill="rgba(40,63,78,1)"/>
<path d="M 286.55 171.08 L 287.02 168.00 L 222.17 168.00 C186.44,168.00 170.31,167.97 162.76,167.60 C162.84,167.59 162.92,167.59 163.00,167.58 C166.02,167.24 180.20,166.73 194.50,166.44 C208.80,166.15 222.52,165.63 225.00,165.29 L 229.50 164.67 L 225.89 164.01 C223.90,163.65 207.14,163.30 188.64,163.22 C159.38,163.09 153.90,163.17 155.05,165.42 C154.43,164.57 154.00,163.66 154.00,163.17 C154.00,162.29 170.27,162.00 220.14,162.00 L 286.27 162.00 L 285.67 157.60 C285.55,156.76 285.43,155.90 285.31,155.11 C285.61,155.97 286.04,156.87 286.58,157.71 C289.01,161.51 288.38,162.86 283.98,163.19 C278.78,163.59 278.75,165.24 283.93,166.44 C287.80,167.34 289.17,169.16 287.00,170.50 C286.84,170.60 286.69,170.80 286.55,171.08 ZM 184.84 148.52 C184.98,148.51 185.13,148.49 185.27,148.47 C187.05,148.26 201.36,147.85 217.08,147.56 C238.22,147.18 245.96,147.36 246.83,148.23 C246.94,148.34 247.05,148.43 247.16,148.52 L 215.72 148.76 C202.18,148.87 190.32,148.76 184.84,148.52 ZM 304.72 157.75 C313.50,161.27 322.00,164.89 322.00,165.29 C322.00,165.78 321.21,166.39 320.25,166.65 C319.29,166.90 310.96,169.93 301.75,173.39 C300.27,173.95 298.83,174.48 297.45,174.98 C306.52,171.62 317.00,167.24 317.00,166.43 C317.00,163.85 313.64,161.42 304.72,157.75 ZM 264.22 115.20 C272.72,96.20 285.91,66.82 293.90,49.08 C290.42,56.94 284.86,69.36 276.23,88.50 C272.39,97.03 268.03,106.73 264.22,115.20 ZM 248.86 148.50 C248.88,148.49 248.90,148.47 248.92,148.45 C249.27,148.08 251.45,143.56 254.32,137.30 L 249.31 148.50 L 248.86 148.50 ZM 286.22 150.86 C288.16,151.33 294.43,153.68 301.19,156.35 C300.96,156.26 300.73,156.17 300.50,156.08 C293.79,153.51 287.64,151.26 286.22,150.86 ZM 298.99 36.86 C298.66,36.38 283.51,36.00 264.63,36.00 C283.53,36.00 299.00,36.36 299.00,36.80 C299.00,36.81 299.00,36.84 298.99,36.86 ZM 284.88 177.58 C285.21,177.14 285.65,175.82 286.00,174.26 C285.95,175.75 285.51,177.18 284.98,177.51 C284.95,177.53 284.92,177.55 284.88,177.58 ZM 284.51 179.18 C284.42,179.09 284.38,178.94 284.38,178.76 C284.40,178.82 284.42,178.88 284.46,178.93 C284.64,179.22 286.86,178.64 290.06,177.59 C286.78,178.70 284.65,179.32 284.51,179.18 ZM 284.81 151.99 C284.80,151.94 284.79,151.89 284.78,151.85 C284.64,151.16 285.08,150.72 285.79,150.78 C285.22,150.76 284.90,151.24 284.81,151.99 ZM 181.63 148.20 C181.62,148.19 181.62,148.18 181.61,148.17 C181.64,148.20 181.67,148.22 181.71,148.25 C181.66,148.23 181.63,148.22 181.63,148.20 Z" fill="rgba(216,139,48,1)"/>
<path d="M 205.09 239.75 C204.61,238.51 199.06,225.80 192.75,211.50 C186.44,197.20 181.00,184.60 180.66,183.50 C180.04,181.54 180.53,181.50 207.11,181.33 C233.02,181.16 234.17,181.23 233.71,183.00 C232.73,186.74 207.48,241.92 206.73,241.96 C206.30,241.98 205.56,240.99 205.09,239.75 ZM 284.46 178.93 C284.19,178.49 284.42,177.86 284.98,177.51 C285.54,177.16 286.00,175.59 286.00,174.00 C286.00,172.41 286.45,170.84 287.00,170.50 C289.17,169.16 287.80,167.34 283.93,166.44 C278.75,165.24 278.78,163.59 283.98,163.19 C288.38,162.86 289.01,161.51 286.58,157.71 C284.48,154.44 284.15,150.43 286.00,150.80 C286.83,150.96 293.35,153.34 300.50,156.08 C312.60,160.72 317.00,163.48 317.00,166.43 C317.00,167.85 285.17,180.08 284.46,178.93 ZM 156.25 166.89 C152.69,163.21 153.97,163.07 188.64,163.22 C207.14,163.30 223.90,163.65 225.89,164.01 L 229.50 164.67 L 225.00 165.29 C222.52,165.63 208.80,166.15 194.50,166.44 C180.20,166.73 166.02,167.24 163.00,167.58 C159.13,168.00 157.13,167.80 156.25,166.89 ZM 181.58 148.12 C181.16,147.45 190.38,126.11 220.20,58.75 L 230.26 36.00 L 264.63 36.00 C283.73,36.00 299.00,36.39 299.00,36.88 C299.00,37.36 297.91,40.18 296.58,43.13 C287.31,63.66 265.32,112.69 258.29,128.50 C253.64,138.95 249.42,147.93 248.92,148.45 C248.34,149.05 247.56,148.96 246.83,148.23 C245.96,147.36 238.22,147.18 217.08,147.56 C201.36,147.85 187.05,148.26 185.27,148.47 C183.49,148.69 181.83,148.53 181.58,148.12 Z" fill="rgba(229,152,54,1)"/>
</g>
</svg>